Coordinates
version=1
nRows=24
nColumns=24
inDegrees=yes

Units are S.I. units (second, meters, Newtons, ...)
Angles are in degrees.

endheader
time	pelvis_tilt	pelvis_list	pelvis_rotation	pelvis_tx	pelvis_ty	pelvis_tz	hip_flexion_r	hip_adduction_r	hip_rotation_r	knee_angle_r	ankle_angle_r	subtalar_angle_r	mtp_angle_r	hip_flexion_l	hip_adduction_l	hip_rotation_l	knee_angle_l	ankle_angle_l	subtalar_angle_l	mtp_angle_l	lumbar_extension	lumbar_bending	lumbar_rotation
      3.43000000	     -1.59248435	     -4.58873209	     -1.18745096	     -1.20518005	      0.93913215	      0.21769464	     12.77022413	     12.13374613	      5.33593248	    -22.24438929	     13.90737918	    -16.44944835	      0.00000000	     23.15765942	     -5.35730892	     -2.70520593	    -68.96421878	     10.38959760	    -13.98466397	      0.00000000	     -9.79724844	      4.23349625	     -9.89666915
      3.43500000	     -1.49452806	     -4.42063304	     -1.43539450	     -1.19840522	      0.94025191	      0.21832882	     11.88925312	     12.01075042	      5.75594323	    -21.72328243	     14.03453854	    -16.45182736	      0.00000000	     23.62618326	     -5.20484609	     -2.84350079	    -68.22898091	     10.98681317	    -13.37791427	      0.00000000	     -9.90181384	      3.98048711	     -9.46919716
      3.44000000	     -1.49740863	     -4.20826842	     -1.60346266	     -1.19161530	      0.94117037	      0.21885421	     11.14142503	     11.81017569	      6.00300244	    -21.21673699	     14.21266719	    -16.42436541	      0.00000000	     24.19768586	     -4.97112247	     -2.92062718	    -67.41293828	     11.48443777	    -12.82036413	      0.00000000	     -9.86534918	      3.69095284	     -9.26339459
      3.44500000	     -1.41427433	     -4.03296612	     -1.85412557	     -1.18486158	      0.94213145	      0.21946139	     10.29285234	     11.65983925	      6.39874235	    -20.71123255	     14.35431990	    -16.40422782	      0.00000000	     24.62564556	     -4.81079543	     -3.08110653	    -66.50675869	     12.00163792	    -12.30449616	      0.00000000	     -9.95553188	      3.43456466	     -8.84137436
      3.45000000	     -1.42891971	     -3.83896334	     -2.02554952	     -1.17808239	      0.94287692	      0.21994114	      9.57477507	     11.46227270	      6.61633037	    -20.22144753	     14.52845897	    -16.36308302	      0.00000000	     25.15297558	     -4.59678655	     -3.17672901	    -65.52902542	     12.43976585	    -11.83922276	      0.00000000	     -9.90895999	      3.18359200	     -8.62266299
      3.45500000	     -1.36527242	     -3.66693282	     -2.27869237	     -1.17135665	      0.94364857	      0.22054297	      8.77565800	     11.29864253	      6.96754112	    -19.75159030	     14.68964115	    -16.30334832	      0.00000000	     25.54358702	     -4.43447148	     -3.34298624	    -64.45565137	     12.87805752	    -11.45627257	      0.00000000	     -9.98082208	      2.92637793	     -8.21833864
      3.46000000	     -1.34780993	     -3.49490619	     -2.48388487	     -1.16459292	      0.94426781	      0.22103253	      8.04081831	     11.11713568	      7.21965851	    -19.29135396	     14.86210668	    -16.25815716	      0.00000000	     25.96711723	     -4.25126375	     -3.47558412	    -63.31080872	     13.24787822	    -11.12827094	      0.00000000	     -9.98345060	      2.70045143	     -7.93346571
      3.46500000	     -1.40761497	     -3.35763788	     -2.59416031	     -1.15788304	      0.94463462	      0.22139249	      7.41015508	     10.95900017	      7.36779791	    -18.84290427	     15.05680993	    -16.20569796	      0.00000000	     26.48623125	     -4.04509502	     -3.46731464	    -62.13103909	     13.56726657	    -10.85702576	      0.00000000	     -9.90281563	      2.51856279	     -7.70014889
      3.47000000	     -1.31615775	     -3.18855374	     -2.91116571	     -1.15110360	      0.94519270	      0.22206850	      6.61167272	     10.78591250	      7.71937713	    -18.42740794	     15.26158282	    -16.12555148	      0.00000000	     26.73600121	     -3.92513511	     -3.74257876	    -60.80579565	     13.85114449	    -10.68254347	      0.00000000	     -9.99786551	      2.25963671	     -7.29021812
      3.47500000	     -1.28222162	     -3.05582162	     -3.10846787	     -1.14435787	      0.94554399	      0.22251604	      5.89512949	     10.63243785	      7.96823553	    -18.02280335	     15.44000203	    -16.09039963	      0.00000000	     27.05319385	     -3.76328645	     -3.84973285	    -59.43343766	     14.10348745	    -10.55833758	      0.00000000	    -10.03281462	      2.07334154	     -6.99482323
      3.48000000	     -1.26474422	     -2.93938933	     -3.30789720	     -1.13759921	      0.94576461	      0.22296496	      5.20957089	     10.49414803	      8.20357966	    -17.64242793	     15.63701730	    -16.05376438	      0.00000000	     27.36129444	     -3.62158079	     -3.95771385	    -57.99803745	     14.31712953	    -10.47654179	      0.00000000	    -10.04631610	      1.90673892	     -6.70257539
      3.48500000	     -1.24903114	     -2.83711859	     -3.50591449	     -1.13084297	      0.94588402	      0.22339732	      4.53931626	     10.36844574	      8.44007728	    -17.28691039	     15.83995720	    -16.02459718	      0.00000000	     27.64177829	     -3.49115202	     -4.05750949	    -56.49410542	     14.49499960	    -10.43385542	      0.00000000	    -10.06020224	      1.75608364	     -6.41885994
      3.49000000	     -1.29775601	     -2.75132901	     -3.65867664	     -1.12408162	      0.94579462	      0.22375581	      3.96129634	     10.25919562	      8.61523954	    -16.96689910	     16.05052377	    -16.01008318	      0.00000000	     27.97250608	     -3.35038007	     -4.07682200	    -54.93678608	     14.68176528	    -10.36396414	      0.00000000	     -9.99815519	      1.63557535	     -6.21354272
      3.49500000	     -1.24699050	     -2.66529115	     -3.89254100	     -1.11728713	      0.94578775	      0.22421611	      3.26470376	     10.14547407	      8.89851584	    -16.64318226	     16.27539492	    -15.99058311	      0.00000000	     28.14323124	     -3.26150051	     -4.24192333	    -53.28798327	     14.77347742	    -10.41467791	      0.00000000	    -10.05237376	      1.49891909	     -5.90373110
      3.50000000	     -1.22560662	     -2.61085080	     -4.07356962	     -1.11049815	      0.94562758	      0.22460822	      2.61626518	     10.06440291	      9.13860913	    -16.34657526	     16.48737960	    -15.99837343	      0.00000000	     28.32548912	     -3.16830195	     -4.29645102	    -51.58981840	     14.88869039	    -10.40951741	      0.00000000	    -10.07580411	      1.40008765	     -5.65374552
      3.50500000	     -1.19243983	     -2.56840460	     -4.25885203	     -1.10373131	      0.94540434	      0.22493426	      1.96636333	      9.98836987	      9.39755088	    -16.07180927	     16.69898950	    -16.00893285	      0.00000000	     28.46403140	     -3.08370000	     -4.34875144	    -49.82698067	     14.97895611	    -10.40502374	      0.00000000	    -10.12594918	      1.33048642	     -5.38766674
      3.51000000	     -1.19040853	     -2.53771832	     -4.43194995	     -1.09694409	      0.94504430	      0.22528604	      1.36382604	      9.92904219	      9.62310340	    -15.82383974	     16.92441655	    -16.02429656	      0.00000000	     28.60527180	     -3.00915423	     -4.36672715	    -48.00772968	     15.07435142	    -10.35301464	      0.00000000	    -10.13303537	      1.26146733	     -5.17257642
      3.51500000	     -1.17000341	     -2.52066083	     -4.60361022	     -1.09016466	      0.94463636	      0.22558925	      0.74782416	      9.87651050	      9.85976810	    -15.59085229	     17.15260250	    -16.02881546	      0.00000000	     28.69485826	     -2.94825554	     -4.38504985	    -46.12771593	     15.15457219	    -10.27703072	      0.00000000	    -10.17123128	      1.21826109	     -4.93746255
      3.52000000	     -1.16266246	     -2.51584613	     -4.76406746	     -1.08338319	      0.94413169	      0.22587987	      0.15695790	      9.83657447	     10.07252459	    -15.37890512	     17.38966234	    -16.03042727	      0.00000000	     28.76793848	     -2.89627564	     -4.37223206	    -44.19420882	     15.23598733	    -10.13772730	      0.00000000	    -10.19560508	      1.18644001	     -4.72935737
      3.52500000	     -1.15318671	     -2.51554183	     -4.92228171	     -1.07661074	      0.94356618	      0.22614824	     -0.42430022	      9.79743660	     10.27647517	    -15.18932588	     17.63463516	    -16.01922499	      0.00000000	     28.80508725	     -2.84984783	     -4.34841544	    -42.20217654	     15.31117103	     -9.94181538	      0.00000000	    -10.23050199	      1.16242261	     -4.52760379
      3.53000000	     -1.15098525	     -2.52554365	     -5.07476435	     -1.06984350	      0.94292174	      0.22640250	     -0.98771798	      9.76745068	     10.45519146	    -15.01780909	     17.88939798	    -15.99532803	      0.00000000	     28.81898762	     -2.81360957	     -4.29874512	    -40.16165507	     15.38184800	     -9.67685938	      0.00000000	    -10.25847051	      1.14831653	     -4.34198426
      3.53500000	     -1.14233147	     -2.53831018	     -5.21429073	     -1.06308432	      0.94223272	      0.22660826	     -1.54626375	      9.73482302	     10.62089548	    -14.86892727	     18.14883543	    -15.94842322	      0.00000000	     28.79415147	     -2.77723556	     -4.23479923	    -38.06867432	     15.44274076	     -9.35127369	      0.00000000	    -10.30383672	      1.14528749	     -4.15505504
      3.54000000	     -1.14777248	     -2.55795191	     -5.35271816	     -1.05632496	      0.94146612	      0.22682743	     -2.07999532	      9.70949205	     10.75346823	    -14.73596141	     18.41902810	    -15.88693901	      0.00000000	     28.75439054	     -2.75273459	     -4.14369292	    -35.93645394	     15.49112629	     -8.95995200	      0.00000000	    -10.33318546	      1.14055909	     -3.99419043
      3.54500000	     -1.28651019	     -2.64790476	     -5.42851930	     -1.04962949	      0.94040828	      0.22693931	     -2.45791411	      9.77533236	     10.82579781	    -14.62300856	     18.65836071	    -15.85781967	      0.00000000	     28.86834900	     -2.77519991	     -3.89707185	    -33.82952244	     15.54696421	     -8.48732673	      0.00000000	    -10.22419525	      1.25197302	     -3.85106416
